<?xml version="1.0" encoding="UTF-8"?>
<svg id="Layer_1" xmlns="http://www.w3.org/2000/svg" version="1.1" viewBox="0 0 544.66 48.89">
  <!-- Generator: Adobe Illustrator 29.4.0, SVG Export Plug-In . SVG Version: 2.1.0 Build 152)  -->
  <defs>
    <style>
      .st0 {
        fill: #fff;
      }

      .st1 {
        fill: #ed2224;
      }
    </style>
  </defs>
  <polygon class="st1" points="30.4 46.97 32.73 27.71 13.44 27.71 11.04 46.97 1.13 46.97 6.67 1.92 16.58 1.92 14.46 19.34 33.76 19.34 35.94 1.92 45.85 1.92 40.31 46.97 30.4 46.97"/>
  <path class="st1" d="M56.66,46.97l2.51-20.11L47.7,1.92h10.97l2.98,6.94.6,1.41c1.35,3.18,1.49,3.52,1.91,4.84.09.25.16.48.25.76.07.25.16.52.25.81l.74,2.22,1.09-2.07c.63-1.19,1.26-2.16,2.27-3.64l7.81-11.27h11.9l-19.44,25.06-2.47,19.99h-9.91Z"/>
  <path class="st1" d="M85.58,46.97L91.12,1.92h14.85c4.69,0,9.51.47,12.99,3.88,3.23,3.17,3.65,7.05,3.65,10.08s-.39,7.11-3.4,10.4c-3.07,3.34-8.48,5.11-15.63,5.11h-6.18l-1.9,15.59h-9.91ZM98.42,23.5h4.87c1.25,0,5.07,0,7.34-2.27,1.19-1.19,1.77-2.79,1.77-4.87,0-2.56-.89-3.98-1.63-4.73-1.76-1.84-4.56-1.84-6.07-1.84h-4.63s-1.65,13.71-1.65,13.71Z"/>
  <polygon class="st1" points="121 46.97 126.54 1.92 150.27 1.92 149.25 10.29 135.42 10.29 134.18 20.12 147.59 20.12 146.57 28.42 133.16 28.42 131.93 38.6 146.32 38.6 145.3 46.97 121 46.97"/>
  <path class="st0" d="M172.85,47.89c-13.33,0-22.63-9.19-22.63-22.35S161.06,1,174.9,1c4.75,0,8.62,1.02,13.18,3.5l-1.12,9.23c-3.25-2.31-6.78-3.44-10.72-3.44-9.16,0-15.81,6.18-15.81,14.69,0,8.02,5.84,13.63,14.19,13.63,3.32,0,6.4-.71,9.57-2.21l-1.17,9.5c-4.46,1.56-6.72,2-10.16,2Z"/>
  <path class="st0" d="M212.57,47.89c-14.76,0-24.68-9.15-24.68-22.77S198.42,1,213.49,1c13.81,0,23.08,8.29,23.62,21.12v.87c0,14.89-9.86,24.89-24.54,24.89ZM212.99,10.29c-8.63,0-14.9,6.06-14.9,14.4s5.7,13.91,14.19,13.91,14.61-5.89,14.61-14.33c0-.3,0-.63-.08-.99-.49-7.9-5.91-12.99-13.83-12.99Z"/>
  <path class="st0" d="M285.22,46.97l-.54-20.12v-1.45c0-2.49.12-4.14.56-7.71l-1.93-.47c-1.08,2.9-1.97,4.98-3.28,7.67l-11.28,22.08h-4.86l-3.85-17.42c-.96-4.33-1.31-6.62-1.96-12.87l-1.98-.09c-1.09,5.59-1.66,7.91-2.45,10.71l-5.85,19.66h-10.16L251.9,1.92h10.25l3.35,15.09c.85,3.68,1.5,7.45,2.1,12.25l1.93.21c.85-2.39,1.88-4.86,2.62-6.29l10.8-21.26h10.76l1.42,45.05h-9.92Z"/>
  <path class="st0" d="M346.18,46.97l-.54-20.12v-1.45c0-2.48.12-4.14.56-7.71l-1.93-.47c-1.08,2.9-1.96,4.97-3.28,7.67l-11.28,22.08h-4.86l-3.85-17.42c-.96-4.33-1.31-6.62-1.96-12.87l-1.98-.09c-1.09,5.58-1.66,7.9-2.45,10.71l-5.85,19.66h-10.16l14.25-45.05h10.25l3.35,15.09c.85,3.67,1.5,7.44,2.1,12.25l1.93.21c.85-2.39,1.88-4.86,2.63-6.29l10.8-21.26h10.76l1.42,45.05h-9.92Z"/>
  <path class="st0" d="M381.33,47.89c-11.65,0-18.61-5.64-18.61-15.08,0-1.25.17-3.21.56-6.37l3-24.52h9.84l-2.97,24.27c-.15,1.45-.22,2.81-.22,4.07,0,5.45,3.03,8.34,8.76,8.34,3.29,0,5.86-.92,7.44-2.66,1.72-1.96,2.22-3.82,2.79-8.09l3.14-25.94h9.91l-3.18,26.11c-1.11,8.89-2.25,12.23-5.06,14.92-3.32,3.19-8.79,4.94-15.39,4.94Z"/>
  <path class="st0" d="M438.84,46.97l-12.2-20.6c-1.95-3.16-3.71-6.71-5.72-11.52l-1.92.39v2.12c0,3.44-.14,5.9-.49,8.77l-2.57,20.85h-9.91l5.54-45.05h11.38l13.11,22.22,2.03,3.77,1.82,3.58.92,1.77,1.89-.44c.08-3.17.23-5.4.56-7.94l2.79-22.97h9.91l-5.54,45.05h-11.59Z"/>
  <polygon class="st0" points="457.04 46.97 462.58 1.92 472.48 1.92 466.95 46.97 457.04 46.97"/>
  <polygon class="st0" points="479.12 46.97 483.64 10.29 473.62 10.29 474.64 1.92 504.58 1.92 503.56 10.29 493.54 10.29 488.96 46.97 479.12 46.97"/>
  <path class="st0" d="M510.8,46.97l2.5-20.11-11.46-24.94h10.97l2.98,6.94.62,1.46c1.33,3.15,1.47,3.48,1.89,4.8.1.24.16.48.24.75.08.25.16.53.26.82l.74,2.21,1.09-2.06c.63-1.19,1.26-2.16,2.27-3.64l7.81-11.27h11.9l-19.45,25.06-2.46,19.99h-9.91Z"/>
</svg>